<?xml version="1.0" encoding="UTF-8"?>
<svg width="17px" height="12px" viewBox="0 0 17 12" version="1.1" xmlns="http://www.w3.org/2000/svg" xmlns:xlink="http://www.w3.org/1999/xlink">
    <!-- Generator: Sketch 61.2 (89653) - https://sketch.com -->
    <title>Group 3</title>
    <desc>Created with Sketch.</desc>
    <defs>
        <polygon id="path-1" points="0 0 16.8 0 16.8 12 0 12"></polygon>
    </defs>
    <g id="Page-1" stroke="none" stroke-width="1" fill="none" fill-rule="evenodd">
        <g id="Group-3" transform="translate(8.400000, 6.000000) scale(-1, 1) rotate(-180.000000) translate(-8.400000, -6.000000) translate(0.000000, 0.000000)">
            <mask id="mask-2" fill="white">
                <use xlink:href="#path-1"></use>
            </mask>
            <g id="Clip-2"></g>
            <path d="M16.6974487,5.73487347 L11.4474526,0.109872097 C11.310723,-0.0366240324 11.0892388,-0.0366240324 10.952542,0.109872097 C10.8158124,0.256368227 10.8158124,0.493672972 10.952542,0.640133945 L15.6050886,5.62501016 L0.350010681,5.62501016 C0.156548323,5.62501016 0,5.79274067 0,6.00002197 C0,6.20730327 0.156548323,6.37503378 0.350010681,6.37503378 L15.6050886,6.37503378 L10.952542,11.3598748 C10.8158124,11.506371 10.8158124,11.7436757 10.952542,11.8901367 C11.0208904,11.9633672 11.1104684,12 11.2000137,12 C11.2895589,12 11.3791042,11.9633672 11.4474854,11.8901367 L16.6974815,6.26513532 C16.8341783,6.11867435 16.8341783,5.8813696 16.6974487,5.73487347" id="Fill-1" fill="#000000" mask="url(#mask-2)"></path>
        </g>
    </g>
</svg>