<?xml version="1.0" encoding="UTF-8"?>
<svg width="16px" height="16px" viewBox="0 0 16 16" version="1.1" xmlns="http://www.w3.org/2000/svg" xmlns:xlink="http://www.w3.org/1999/xlink">
    <!-- Generator: Sketch 61.2 (89653) - https://sketch.com -->
    <title>Fill 1</title>
    <desc>Created with Sketch.</desc>
    <g id="Page-1" stroke="none" stroke-width="1" fill="none" fill-rule="evenodd">
        <g id="Desktop-HD" transform="translate(-1402.000000, -128.000000)" fill="#FFFFFF">
            <g id="Group-3" transform="translate(1402.000000, 128.000000)">
                <path d="M8.88392362,8.00003516 L15.8169067,1.06697604 C16.0610311,0.822882411 16.0610311,0.427132604 15.8169067,0.183070223 C15.5728448,-0.0609921577 15.1770958,-0.0610234077 14.9330339,0.183070223 L7.99998828,7.11612934 L1.06697396,0.183070223 C0.822880804,-0.0610234077 0.42713177,-0.0610234077 0.183069866,0.183070223 C-0.0609920386,0.427163854 -0.0610232885,0.822913661 0.183069866,1.06697604 L7.11608419,8 L0.183069866,14.933063 C-0.0610232885,15.1771567 -0.0610232885,15.5729065 0.183069866,15.8169688 C0.305100818,15.939 0.465069177,16 0.625037537,16 C0.785005896,16 0.944943006,15.939 1.06700521,15.8170001 L7.99998828,8.88394097 L14.9330026,15.8169688 C15.0550336,15.939 15.2150019,16 15.3749703,16 C15.5349386,16 15.6948757,15.939 15.8169067,15.8169688 C16.0610311,15.5728752 16.0610311,15.1771254 15.8169067,14.933063 L8.88392362,8.00003516 Z" id="Fill-1"></path>
            </g>
        </g>
    </g>
</svg>