<?xml version="1.0" encoding="UTF-8"?>
<svg width="24px" height="30px" viewBox="0 0 24 30" version="1.1" xmlns="http://www.w3.org/2000/svg" xmlns:xlink="http://www.w3.org/1999/xlink">
    <!-- Generator: Sketch 61.2 (89653) - https://sketch.com -->
    <title>Group 4</title>
    <desc>Created with Sketch.</desc>
    <g id="Page-1" stroke="none" stroke-width="1" fill="none" fill-rule="evenodd" opacity="0.198484174">
        <g id="Desktop-HD" transform="translate(-368.000000, -298.000000)" fill="#D8D8D8">
            <g id="Group-6" transform="translate(155.000000, 238.000000)">
                <g id="luck">
                    <g id="Group-4" transform="translate(213.000000, 60.000000)">
                        <path d="M-7,11 L19,11 L19,11 L19,19 L-7,19 C-9.209139,19 -11,17.209139 -11,15 C-11,12.790861 -9.209139,11 -7,11 Z" id="Rectangle" transform="translate(4.000000, 15.000000) rotate(-270.000000) translate(-4.000000, -15.000000) "></path>
                        <path d="M15,17 L29,17 L29,17 L29,25 L15,25 C12.790861,25 11,23.209139 11,21 C11,18.790861 12.790861,17 15,17 Z" id="Rectangle" transform="translate(20.000000, 21.000000) rotate(-270.000000) translate(-20.000000, -21.000000) "></path>
                        <circle id="Oval" cx="20" cy="4" r="4"></circle>
                    </g>
                </g>
            </g>
        </g>
    </g>
</svg>