<?xml version="1.0" encoding="UTF-8"?>
<svg width="181px" height="81px" viewBox="0 0 181 81" version="1.1" xmlns="http://www.w3.org/2000/svg" xmlns:xlink="http://www.w3.org/1999/xlink">
    <!-- Generator: Sketch 61.2 (89653) - https://sketch.com -->
    <title>Shape</title>
    <desc>Created with Sketch.</desc>
    <g id="Page-1" stroke="none" stroke-width="1" fill="none" fill-rule="evenodd">
        <g id="star-wars" fill="#FFFFFF" fill-rule="nonzero">
            <path d="M0.669,25.9299098 L0.669,38.4373253 L37.2549205,38.4373253 C41.5074418,38.4373253 46.9405048,34.5051521 46.9405048,28.0003073 C46.9405048,25.3841317 47.9410981,23.6775863 44.8661525,20.2170366 L40.1865005,14.6722472 C37.5050688,12.1707641 40.5068485,12.1707641 42.759172,12.1707641 L58.2060773,12.1707641 L58.2060773,38.4373253 L70.4564234,38.4373253 L70.4564234,12.1707641 L86.9672005,12.1707641 L86.9672005,0.922 L33.5026959,0.922 C26.9978511,0.922 23.8171115,7.1677979 23.9960714,10.4197259 C24.17602,13.6716539 24.7742007,17.7630125 30.1795794,22.6779818 C35.1103684,27.1598881 27.7384087,25.9299098 26.9978511,25.9299098 L0.669,25.9299098 L0.669,25.9299098 Z M114.055395,0.922 L94.2926899,0.922 L83.2139871,38.438314 L95.5434315,38.438314 L97.5436292,33.1851995 L110.551341,33.1851995 L112.482328,38.438314 L124.559647,38.438314 L114.055395,0.922 L114.055395,0.922 Z M100.296249,24.1788717 L104.548771,10.4197259 L108.552132,24.1788717 L100.296249,24.1788717 L100.296249,24.1788717 Z M163.585749,25.9299098 C158.832931,25.9299098 158.832931,24.1788717 158.832931,24.1788717 C162.905504,24.1788717 166.51634,18.245512 166.51634,12.1707641 C166.51634,6.09601622 160.583969,0.922 155.829174,0.922 L129.241276,0.922 L129.241276,38.438314 L142.751262,38.438314 L142.751262,25.9308986 C142.751262,25.9308986 148.503685,32.6849029 151.505464,35.4365343 C154.508233,38.1881657 154.757392,38.438314 158.831942,38.438314 L180.03918,38.438314 L180.03918,25.9308986 C180.041157,25.9299098 168.338567,25.9299098 163.585749,25.9299098 L163.585749,25.9299098 Z M151.327493,17.174719 L142.75324,17.174719 L142.75324,10.4197259 L151.327493,10.4197259 C155.258678,10.4197259 155.938923,17.174719 151.327493,17.174719 Z M0.669,43.1901432 L14.4904356,43.1901432 L17.992512,55.6995361 L21.24444,43.1901432 L35.7540307,43.1901432 L39.5062553,55.6995361 L43.2594687,43.1901432 L55.2665875,43.1901432 L44.2590732,80.7153557 L33.2525476,80.7153557 L28.42953,62.9528483 L22.9954781,80.7153557 L11.7388042,80.7153557 L0.669,43.1901432 Z M83.6322193,43.4066747 L63.8695141,43.4066747 L52.7918001,80.922 L65.1202557,80.922 L67.1214422,75.6698742 L80.130143,75.6698742 L82.0611297,80.922 L94.139437,80.922 L83.6322193,43.4066747 Z M180.043135,43.1911319 L180.043135,54.4497833 L163.834909,54.4497833 L163.834909,54.4487945 C161.585551,54.4487945 159.132516,54.7117963 161.814936,57.2122907 L166.495577,62.7580688 C169.569534,66.2186185 169.520097,67.6611734 169.520097,70.2793265 C169.520097,76.7831825 163.085452,80.7153557 158.832931,80.7153557 L129.273904,80.9140902 C125.201331,80.9140902 124.952172,80.6649306 121.949403,77.9132992 C118.948612,75.1616678 113.194213,68.4066747 113.194213,68.4066747 L113.194213,80.9140902 L99.6862039,80.9140902 L99.6862039,43.3987649 L126.274102,43.3987649 C131.02692,43.3987649 136.961268,48.5737698 136.961268,54.647529 C136.961268,60.7232656 133.350432,66.6556365 129.275882,66.6556365 C129.275882,66.6556365 131.067458,68.4570999 134.069237,68.4570999 L136.190458,68.4579787 C140.603689,68.4607252 148.630242,68.4689646 148.630242,68.4689646 C149.369811,68.4689646 156.740782,69.6989429 151.810981,65.2170366 C146.405603,60.3020672 145.807422,56.2126862 145.627473,52.9607582 C145.447525,49.7088301 148.259469,43.1911319 154.761347,43.1911319 L180.043135,43.1911319 Z M74.1265835,52.9034119 L78.1289565,66.6625576 L69.8740623,66.6625576 L74.1265835,52.9034119 Z M121.769455,52.8955021 L113.193224,52.8955021 L113.193224,59.6504952 L121.769455,59.6504952 C126.380885,59.6504952 125.701628,52.8955021 121.769455,52.8955021 L121.769455,52.8955021 Z" id="Shape"></path>
        </g>
    </g>
</svg>